<svg xmlns="http://www.w3.org/2000/svg" viewBox="0 0 1600 900" preserveAspectRatio="xMidYMid slice"><defs><radialGradient id="g" cx="75%" cy="42%" r="60%"><stop stop-color="#362064" stop-opacity=".82"/><stop offset=".42" stop-color="#17112e" stop-opacity=".64"/><stop offset="1" stop-color="#080711" stop-opacity="0"/></radialGradient><linearGradient id="m" x1="0" y1="0" x2="1" y2="1"><stop stop-color="#a982ff" stop-opacity=".28"/><stop offset="1" stop-color="#6b3be0" stop-opacity="0"/></linearGradient></defs><rect width="1600" height="900" fill="#080711"/><rect width="1600" height="900" fill="url(#g)"/><g fill="none" stroke="url(#m)" stroke-width="1"><path d="M850 120c260 70 430 250 610 430"/><path d="M760 250c290-30 520 50 730 260"/><path d="M910 690c150-230 270-390 540-530"/><ellipse cx="1260" cy="430" rx="310" ry="115" transform="rotate(-18 1260 430)"/><ellipse cx="1260" cy="430" rx="390" ry="170" transform="rotate(42 1260 430)"/></g><g fill="#c7adff" opacity=".45"><circle cx="1120" cy="170" r="2"/><circle cx="1400" cy="220" r="2"/><circle cx="1510" cy="530" r="2"/><circle cx="980" cy="650" r="2"/><circle cx="1320" cy="720" r="2"/></g></svg>